<svg xmlns="http://www.w3.org/2000/svg" version="1.1" xmlns:xlink="http://www.w3.org/1999/xlink" xmlns:svgjs="http://svgjs.com/svgjs" width="512" height="512" x="0" y="0" viewBox="0 0 91 91" style="enable-background:new 0 0 512 512" xml:space="preserve" class=""><g><path fill="#f2be6d" d="M78.864 87.776H17.036a2.494 2.494 0 1 1 0-4.989h57.713l-5.684-10.89a2.498 2.498 0 0 1 1.058-3.367 2.501 2.501 0 0 1 3.368 1.059l7.585 14.539a2.489 2.489 0 0 1-.077 2.446 2.5 2.5 0 0 1-2.135 1.202z" data-original="#f2be6d"></path><g fill="#3f585c"><path d="M45.778 50.467c-10.879 0-19.729-8.852-19.729-19.733 0-1.378-1.149-1.905-2.527-1.905-1.376 0-2.463.527-2.463 1.905 0 3.264.651 6.374 1.804 9.229-5.995 1.051-14.025 4.823-17.894 8.667C2.621 50.963.208 55.045.471 59.503c.184 3.093 1.656 5.803 4.26 7.84 5.411 4.237 17.383 6.465 22.562 6.523h.096c4.876 0 9.723-4.32 10.001-8.944.104-1.695-.325-7.308-10.145-8.387-2.633-.289-4.408-1.114-7.393-2.854a2.496 2.496 0 0 0-2.515 4.311c2.964 1.729 5.536 3.084 9.363 3.504 1.375.151 5.848.822 5.709 3.123-.11 1.834-2.605 4.257-5.019 4.257h-.043c-4.492-.05-15.325-2.161-19.541-5.462-1.486-1.164-2.257-2.539-2.355-4.205-.155-2.625 1.412-5.426 3.034-7.039 3.494-3.474 12.125-7.267 16.896-7.492 4.46 6.503 11.935 10.78 20.396 10.78a2.494 2.494 0 0 0 2.494-2.495 2.493 2.493 0 0 0-2.493-2.496zM26.052 20.165c.417.269.886.397 1.348.397.821 0 1.297.249 1.774-.493A19.664 19.664 0 0 1 45.778 11a19.729 19.729 0 0 1 16.365 8.702 2.496 2.496 0 0 0 4.137-2.794A24.717 24.717 0 0 0 45.778 6.01c-8.449 0-16.225 4.246-20.802 11.359-.746 1.16-.085 2.05 1.076 2.796z" fill="#3f585c" data-original="#3f585c" class=""></path><path d="M36.214 42.551a2.887 2.887 0 0 0 2.881 2.884 2.89 2.89 0 0 0 2.89-2.884 2.892 2.892 0 0 0-2.89-2.887 2.889 2.889 0 0 0-2.881 2.887zM54.21 42.551a2.888 2.888 0 0 0-2.882-2.887 2.89 2.89 0 0 0-2.89 2.887 2.89 2.89 0 0 0 2.89 2.884 2.887 2.887 0 0 0 2.882-2.884zM86.267 48.629c-3.804-3.78-11.636-7.492-17.596-8.613a24.517 24.517 0 0 0 1.835-9.282 2.496 2.496 0 0 0-4.991 0c0 8.149-5.119 15.567-12.736 18.459a2.495 2.495 0 1 0 1.77 4.664c4.802-1.821 8.807-5.079 11.605-9.165 4.824.367 13.175 4.076 16.596 7.478 1.623 1.613 3.189 4.414 3.034 7.039-.099 1.666-.87 3.041-2.355 4.205-4.216 3.301-15.051 5.412-19.548 5.462-2.436.026-4.944-2.413-5.057-4.255-.139-2.303 4.336-2.974 5.711-3.125 3.829-.422 6.398-1.777 9.363-3.504a2.497 2.497 0 0 0-2.516-4.311c-2.984 1.739-4.76 2.565-7.393 2.854-9.82 1.08-10.248 6.693-10.146 8.389.278 4.623 5.125 8.943 9.998 8.942h.097c5.182-.059 17.155-2.286 22.566-6.523 2.603-2.037 4.076-4.747 4.26-7.84.264-4.459-2.15-8.541-4.497-10.874z" fill="#3f585c" data-original="#3f585c" class=""></path></g><g fill="#f2be6d"><path d="M44.901 37.402c-6.396 0-24.74-3.386-26.069-6.962-1.127-3.036 1.398-10.035 3.006-13.938a2.49 2.49 0 0 1 3.203-1.378c4.217 1.622 12.232 3.295 20.627 3.373l.98.005c10.576 0 15.735-1.593 19.388-3.152a2.499 2.499 0 0 1 3.262 1.283c.926 2.088 3.948 9.133 3.895 12.142a2.495 2.495 0 0 1-.927 1.895c-.339.271-8.538 6.732-27.365 6.732zm-21.382-9.273c3.085 1.345 13.958 4.283 21.382 4.283 13.141 0 20.477-3.386 23.107-4.909-.387-1.57-1.314-4.156-2.338-6.651-3.974 1.416-9.549 2.639-19.022 2.639l-1.025-.005c-8.105-.075-15.359-1.475-20.021-2.902-1.137 3.099-1.968 6.095-2.083 7.545zM29.552 61.964a2.493 2.493 0 0 1-2.12-1.178L10.155 32.995a2.496 2.496 0 0 1 4.237-2.635l17.277 27.79a2.497 2.497 0 0 1-2.117 3.814zM70.591 13.319a2.494 2.494 0 0 1-2.311-3.431l1.659-4.108a2.497 2.497 0 0 1 4.628 1.871l-1.662 4.108a2.495 2.495 0 0 1-2.314 1.56zM75.704 18.429a2.494 2.494 0 0 1-1.509-4.482l4.789-3.636a2.495 2.495 0 0 1 3.017 3.975l-4.789 3.636a2.495 2.495 0 0 1-1.508.507zM83.229 24.907l-.071-.001-5.473-.158a2.494 2.494 0 0 1 .142-4.988l5.471.158a2.495 2.495 0 0 1-.069 4.989z" fill="#f2be6d" data-original="#f2be6d"></path></g></g></svg>