<?xml version="1.0" encoding="utf-8"?>
<!-- Generator: Adobe Illustrator 25.2.0, SVG Export Plug-In . SVG Version: 6.00 Build 0)  -->
<svg version="1.1" id="Layer_1" xmlns="http://www.w3.org/2000/svg" xmlns:xlink="http://www.w3.org/1999/xlink" x="0px" y="0px"
	 viewBox="0 0 85 19.2" style="enable-background:new 0 0 85 19.2;" xml:space="preserve">
<style type="text/css">
	.st0{fill:#333333;fill-opacity:0;}
	.st1{fill:#EB6700;}
	.st2{fill:#C71343;}
	.st3{fill:#45207B;}
	.st4{fill:#76BD4E;}
	.st5{fill:#00234B;}
	.st6{fill:#4195D2;}
	.st7{fill:#F3CE00;}
</style>
<g transform="translate(70.09556579589844,95.42193222045898)">
	<g>
		<g transform="translate(0,0)">
			<g transform="scale(1)">
				<g transform="translate(0, 0)">
					<g>
						<g>
							<rect x="-70.1" y="-95.4" class="st0" width="18" height="19.2"/>
							<path class="st1" d="M-70.1-88.1H-58c3.3,0,5.9,2.7,5.9,5.9c0,3.3-2.7,5.9-5.9,5.9h-12.1V-88.1z"/>
							<path class="st2" d="M-70.1-95.4H-58c3.3,0,5.9,2.7,5.9,5.9c0,3.3-2.7,5.9-5.9,5.9h-12.1V-95.4z"/>
							<path class="st3" d="M-53.3-85.8c-1.1,1.4-2.8,2.2-4.6,2.2H-70v-4.5h12C-56.2-88.1-54.5-87.2-53.3-85.8z"/>
						</g>
					</g>
				</g>
				<g transform="translate(42.30057556405241, 0)">
					<g>
						<g>
							<rect x="-94.4" y="-95.4" class="st0" width="9.7" height="19.2"/>
							<path class="st1" d="M-94.4-95.4h9.7v19.2h-9.7V-95.4z"/>
							<path class="st4" d="M-94.4-95.4v4.4h9.7v-4.4H-94.4z"/>
						</g>
					</g>
				</g>
				<g transform="translate(65.1300037094803, 0)">
					<g>
						<g>
							<rect x="-107.5" y="-95.4" class="st0" width="19.1" height="19.2"/>
							<path class="st5" d="M-107.5-95.4l9.6,9.6l-9.6,9.6V-95.4z"/>
							<path class="st6" d="M-107.5-95.4h19.1l-9.6,9.6L-107.5-95.4z"/>
							<path class="st7" d="M-88.4-76.2h-19.1l9.6-9.6L-88.4-76.2z"/>
						</g>
					</g>
				</g>
				<g transform="translate(110.02407043052177, 0)">
					<g>
						<g>
							<rect x="-133.3" y="-95.4" class="st0" width="19.1" height="19.2"/>
							<path class="st5" d="M-133.3-95.4l9.6,9.6l-9.6,9.6V-95.4z"/>
							<path class="st6" d="M-133.3-95.4h19.1l-9.6,9.6L-133.3-95.4z"/>
							<path class="st7" d="M-114.2-76.2h-19.1l9.6-9.6L-114.2-76.2z"/>
						</g>
					</g>
				</g>
				<g transform="translate(154.91813715156326, 0)">
					<g>
						<g>
							<rect x="-159.1" y="-95.4" class="st0" width="19.1" height="19.2"/>
							<path class="st2" d="M-159.1-76.2v-19.2l19.1,19.2H-159.1z"/>
							<path class="st4" d="M-159.1-95.4h12.3c3.3,0,6,2.7,6,6s-2.7,6-6,6h-12.3V-95.4z"/>
							<path class="st3" d="M-147.1-83.4h-12v-12L-147.1-83.4z"/>
						</g>
					</g>
				</g>
			</g>
		</g>
	</g>
</g>
</svg>
