<?xml version="1.0" encoding="utf-8"?>
<!-- Generator: Adobe Illustrator 25.2.0, SVG Export Plug-In . SVG Version: 6.00 Build 0)  -->
<svg version="1.1" id="Layer_1" xmlns="http://www.w3.org/2000/svg" xmlns:xlink="http://www.w3.org/1999/xlink" x="0px" y="0px"
	 viewBox="0 0 542.9 554.4" style="enable-background:new 0 0 542.9 554.4;" xml:space="preserve">
<g>
	<path d="M271.5,0L0,135.6v283l271.5,135.7l271.5-135.7v-283L271.5,0z M26.7,152.1L263.7,30.9V271l-70.7,36.2V127.7l-93.8,45.8
		v181.7l-72.6,37.2L26.7,152.1z M110.5,346.6V180.5l71.4-34.8v165.9L110.5,346.6z M271.5,524.6L29.8,403.8l241.6-120.8l241.6,120.8
		L271.5,524.6z M516.2,392.3L279.2,271V30.9l237,121.2V392.3z"/>
	<path d="M444,269.4l-93.8-46.8v-91.3L444,177V269.4z M361.4,215.7l71.4,35.7l0-67.3l-71.4-34.8L361.4,215.7z"/>
</g>
</svg>
