<?xml version="1.0" encoding="utf-8"?>
<!-- Generator: Adobe Illustrator 25.2.0, SVG Export Plug-In . SVG Version: 6.00 Build 0)  -->
<svg version="1.1" id="Layer_1" xmlns="http://www.w3.org/2000/svg" xmlns:xlink="http://www.w3.org/1999/xlink" x="0px" y="0px"
	 viewBox="0 0 542.9 554.4" style="enable-background:new 0 0 542.9 554.4;" xml:space="preserve">
<g>
	<path d="M271.5,0L0,135.6v283l271.5,135.7l271.5-135.7v-283L271.5,0z M26.7,152.1L263.7,30.9V271l-70.7,36.2V127.7l-93.8,45.8
		v181.7l-72.6,37.2L26.7,152.1z M110.5,346.6V180.5l71.4-34.8v165.9L110.5,346.6z M271.5,524.6L29.8,403.8l241.6-120.8l241.6,120.8
		L271.5,524.6z M516.2,392.3L279.2,271V30.9l237,121.2V392.3z"/>
	<path d="M444,269.4l-93.8-46.8v-91.3L444,177V269.4z M361.4,215.7l71.4,35.7l0-67.3l-71.4-34.8L361.4,215.7z"/>
</g>
<g>
	<path d="M262.1,423.8l4.4-2.7c3.3-2,4.6-6.4,3.2-9.9l-2.3-5.6c-1.2-2.9-4.3-5-7.5-5c-0.6,0-1.2,0.1-1.7,0.2l-5,1.2
		c-0.4,0.1-0.9,0.2-1.2,0.2c-0.5,0-1.2-0.1-1.6-0.5c-0.4-0.5-0.5-1.5-0.2-2.6l1.2-5c0.9-3.7-1.2-7.8-4.8-9.3l-5.6-2.3
		c-0.9-0.4-1.9-0.6-3-0.6c-2.8,0-5.5,1.4-6.9,3.8l-2.7,4.4c-0.7,1.1-1.5,1.7-2.1,1.7c-0.7,0-1.5-0.6-2.1-1.7l-2.7-4.4
		c-1.4-2.3-4.1-3.8-6.9-3.8c-1,0-2,0.2-3,0.6l-5.6,2.3c-3.5,1.5-5.6,5.5-4.8,9.3l1.2,5c0.3,1.1,0.2,2.1-0.2,2.6
		c-0.4,0.5-1,0.5-1.5,0.5c-0.4,0-0.8-0.1-1.2-0.2l-5-1.2c-0.6-0.1-1.1-0.2-1.7-0.2c-3.2,0-6.3,2-7.5,5l-2.3,5.6
		c-1.5,3.5-0.1,7.9,3.2,9.9c0,0,0.1,0,4.4,2.7c1.1,0.7,1.7,1.5,1.7,2.1c0,0.7-0.6,1.5-1.7,2.1l-4.4,2.7c-3.2,2-4.6,6.4-3.2,9.9
		l2.3,5.6c1.2,2.9,4.3,5,7.5,5c0.6,0,1.2-0.1,1.7-0.2c0,0,0.1,0,5-1.2c0.4-0.1,0.9-0.2,1.2-0.2c0.5,0,1.2,0.1,1.6,0.5
		c0.4,0.5,0.5,1.5,0.2,2.6l-1.2,5c-0.9,3.7,1.2,7.8,4.8,9.3l5.6,2.3c0.9,0.4,1.9,0.6,3,0.6c2.8,0,5.5-1.4,6.9-3.7l2.7-4.4
		c0.7-1.1,1.5-1.7,2.1-1.7c0.7,0,1.5,0.6,2.1,1.7l2.7,4.4c1.4,2.3,4.1,3.8,6.9,3.8c1,0,2-0.2,3-0.6l5.6-2.3c3.5-1.5,5.6-5.5,4.8-9.3
		l-1.2-5c-0.3-1.1-0.2-2.1,0.2-2.6c0.4-0.5,1-0.5,1.5-0.5c0.4,0,0.8,0.1,1.2,0.2l5,1.2c0.6,0.1,1.1,0.2,1.7,0.2c3.2,0,6.3-2,7.5-5
		l2.3-5.6c1.5-3.5,0.1-7.9-3.2-9.9l-4.4-2.7c-1.1-0.7-1.7-1.5-1.7-2.1C260.4,425.3,261.1,424.5,262.1,423.8L262.1,423.8z
		 M258.7,433.6c4.2,2.6,4.4,2.7,4.4,2.7c0.5,0.3,0.9,1.3,0.6,1.9l-2.3,5.6c-0.2,0.6-1.2,1.1-1.8,0.9l-5-1.2
		c-3.8-0.9-7.3,0.1-9.4,2.7c-1.7,2.1-2.2,5-1.4,8.1l1.2,5c0.1,0.6-0.3,1.5-0.9,1.8l-5.6,2.3c-0.6,0.2-1.6-0.1-1.9-0.6l-2.7-4.4
		c-1.9-3-4.7-4.8-7.6-4.8c-3,0-5.7,1.7-7.6,4.8l-2.7,4.4c-0.3,0.5-1.3,0.8-1.9,0.6l-5.6-2.3c-0.6-0.2-1.1-1.1-0.9-1.8l1.2-5
		c0.7-3.1,0.2-6-1.5-8.1c-2-2.6-5.5-3.6-9.4-2.7l-5,1.2c-0.6,0.1-1.5-0.3-1.8-0.9l-2.3-5.6c-0.2-0.6,0.1-1.6,0.6-1.9l4.4-2.7
		c3-1.9,4.8-4.7,4.8-7.6s-1.7-5.8-4.8-7.6l-4.4-2.7c-0.6-0.3-0.9-1.3-0.6-1.9l2.3-5.6c0.2-0.6,1.2-1.1,1.8-0.9l5,1.2
		c3.8,0.9,7.3-0.1,9.4-2.7c1.7-2.1,2.2-5,1.4-8.1l-1.2-5c-0.1-0.6,0.3-1.5,0.9-1.8l5.6-2.3c0.6-0.2,1.6,0.1,1.9,0.6l2.7,4.4
		c1.9,3,4.7,4.8,7.6,4.8c3,0,5.7-1.7,7.6-4.8c2.6-4.1,2.7-4.4,2.7-4.4c0.3-0.5,1.3-0.8,1.9-0.6l5.6,2.3c0.6,0.2,1.1,1.1,0.9,1.8
		l-1.2,5c-0.7,3.1-0.2,6,1.4,8.1c2,2.6,5.5,3.6,9.4,2.7l5-1.2c0.6-0.1,1.5,0.3,1.8,0.9l2.3,5.6c0.2,0.6-0.1,1.6-0.6,1.9l-4.4,2.7
		c-3,1.9-4.8,4.7-4.8,7.6C253.9,428.9,255.7,431.7,258.7,433.6L258.7,433.6z"/>
	<path d="M226.1,407.6c-4.9,0-9.5,1.9-12.9,5.4c-3.5,3.5-5.4,8-5.4,12.9c0,10.1,8.2,18.3,18.3,18.3c10.1,0,18.3-8.2,18.3-18.3
		c0-4.9-1.9-9.5-5.4-12.9C235.5,409.5,230.9,407.6,226.1,407.6L226.1,407.6z M226.1,437.7c-6.5,0-11.8-5.3-11.8-11.8
		c0-3.1,1.2-6.1,3.5-8.3c2.2-2.2,5.2-3.5,8.3-3.5c3.1,0,6.1,1.2,8.3,3.5c2.2,2.2,3.5,5.2,3.5,8.3
		C237.8,432.4,232.6,437.7,226.1,437.7L226.1,437.7z"/>
	<path d="M328.3,419.5l-3.1-0.5c-0.5-0.1-0.7-0.2-0.7-0.2c0-0.1,0.1-0.3,0.3-0.7l1.8-2.6c1.6-2.2,1.3-5.5-0.6-7.5l-2.7-2.7
		c-1.9-1.9-5.3-2.2-7.5-0.6l-2.6,1.9c-0.4,0.3-0.6,0.3-0.6,0.4c0,0-0.2-0.2-0.3-0.8l-0.5-3.1c-0.5-2.7-3-4.9-5.7-4.9h-3.8
		c-2.8,0-5.3,2.1-5.7,4.8l-0.5,3.2c-0.1,0.5-0.2,0.7-0.2,0.7c-0.1,0-0.4-0.1-0.7-0.3l-2.6-1.9c-2.2-1.6-5.6-1.3-7.5,0.6l-2.7,2.7
		c-2,2-2.2,5.2-0.6,7.5c0,0,0,0.1,1.9,2.6c0.3,0.4,0.3,0.6,0.4,0.6c-0.1,0.1-0.3,0.2-0.7,0.3l-3.1,0.5c-2.7,0.5-4.9,3-4.9,5.7v3.8
		c0,2.8,2.1,5.3,4.8,5.7c0,0,0.1,0,3.2,0.5c0.5,0.1,0.7,0.2,0.7,0.2h0c0,0.1-0.1,0.3-0.3,0.7l-1.8,2.6c-1.6,2.2-1.3,5.5,0.6,7.5
		l2.7,2.7c1.9,1.9,5.3,2.2,7.5,0.6l2.6-1.8c0.4-0.3,0.7-0.3,0.6-0.4c0,0,0.2,0.2,0.3,0.8l0.5,3.1c0.4,2.7,3,4.9,5.7,4.9h3.8
		c2.8,0,5.3-2.1,5.7-4.9l0.5-3.1c0.1-0.5,0.2-0.7,0.2-0.7c0.1,0,0.4,0.1,0.7,0.3l2.6,1.8c2.2,1.6,5.6,1.3,7.5-0.6l2.7-2.7
		c2-2,2.2-5.2,0.6-7.5l-1.8-2.6c-0.3-0.4-0.3-0.6-0.4-0.7c0.1-0.1,0.3-0.2,0.7-0.3l3.1-0.5c2.7-0.5,4.9-3,4.9-5.7v-3.8
		C333.2,422.4,331.1,419.9,328.3,419.5L328.3,419.5z M324.2,429.5c-2.5,0.4-4.4,1.8-5.2,3.8c-0.8,2-0.5,4.3,1,6.3
		c1.5,2.1,1.8,2.5,1.8,2.5l-2.6,2.7l-2.6-1.8c-1.3-0.9-2.8-1.4-4.2-1.4c-3,0-5.4,2.2-5.9,5.6l-0.5,3.1h-3.8l-0.5-3.1
		c-0.6-3.4-2.9-5.6-5.9-5.6c-1.4,0-2.8,0.5-4.1,1.4c-2.1,1.5-2.5,1.8-2.5,1.8l-2.7-2.6l1.8-2.6c1.5-2,1.8-4.3,1-6.3
		c-0.8-2-2.7-3.3-5.2-3.8l-3.1-0.5l0-3.8l3.1-0.5c2.5-0.4,4.4-1.8,5.2-3.8c0.8-2,0.5-4.3-1-6.3l-1.9-2.5l2.6-2.7l2.6,1.9
		c1.3,0.9,2.8,1.4,4.1,1.4c3,0,5.4-2.2,5.9-5.6l0.5-3.1l3.7,0l0.5,3.1c0.6,3.4,2.9,5.6,5.9,5.6c1.4,0,2.8-0.5,4.1-1.4l2.5-1.9
		l2.7,2.6l-1.8,2.6c-1.5,2-1.8,4.3-1,6.3c0.8,2,2.7,3.4,5.2,3.8l3.1,0.5l0,3.7L324.2,429.5z"/>
	<path d="M304.2,415.6c-3.1,0-6,1.2-8.1,3.4c-2.2,2.2-3.4,5.1-3.4,8.1c0,3.1,1.2,6,3.4,8.1c2.2,2.2,5.1,3.4,8.1,3.4
		c3.1,0,6-1.2,8.1-3.4c2.2-2.2,3.4-5.1,3.4-8.1c0-3.1-1.2-6-3.4-8.1C310.2,416.8,307.3,415.6,304.2,415.6L304.2,415.6z M308.2,431.1
		c-2.1,2.1-5.8,2.1-8,0c-1.1-1.1-1.6-2.5-1.6-4c0-1.5,0.6-2.9,1.6-4c1.1-1.1,2.5-1.6,4-1.6c1.5,0,2.9,0.6,4,1.6
		c1.1,1.1,1.6,2.5,1.7,4C309.9,428.6,309.3,430,308.2,431.1L308.2,431.1z"/>
	<path d="M277.9,388.6l0.8,4.7c0.6,3.3,3.6,5.9,7,5.9h5.8c3.4,0,6.4-2.6,7-5.9l0.8-4.7c0.1-0.4,0.4-1.8,1.1-1.8
		c0.2,0,0.7,0.1,1.6,0.7l3.8,2.7c2.7,1.9,6.8,1.6,9.1-0.8l4.1-4.1c2.4-2.4,2.7-6.4,0.8-9.1c0,0-0.2-0.3-2.8-3.8
		c-0.6-0.8-0.7-1.5-0.6-1.8c0.1-0.3,0.6-0.7,1.7-0.9l4.7-0.8c3.3-0.6,5.9-3.6,5.9-7l0-5.8c0-3.4-2.6-6.4-5.9-7l-4.7-0.8
		c-1.1-0.2-1.6-0.6-1.7-0.9c-0.1-0.3,0-1,0.6-1.8l2.7-3.8c2-2.7,1.6-6.8-0.8-9.1l-4.1-4.1c-2.3-2.3-6.5-2.7-9.1-0.8
		c0,0-0.3,0.2-3.8,2.8c-0.8,0.6-1.4,0.7-1.6,0.7c-0.8,0-1-1.4-1.1-1.8l-0.8-4.7c-0.6-3.3-3.6-5.9-7-5.9l-5.8,0c-3.4,0-6.4,2.6-7,5.9
		l-0.8,4.7c-0.1,0.4-0.3,1.8-1.1,1.8c-0.2,0-0.7-0.1-1.6-0.7l-3.8-2.7c-2.7-1.9-6.8-1.6-9.1,0.8l-4.1,4.1c-2.4,2.4-2.7,6.4-0.8,9.1
		c0,0,0.2,0.3,2.8,3.8c0.6,0.8,0.7,1.5,0.6,1.8c-0.1,0.3-0.6,0.7-1.7,0.9l-4.7,0.8c-3.3,0.6-5.9,3.6-5.9,7v5.8c0,3.4,2.6,6.4,5.9,7
		l4.7,0.8c1.1,0.2,1.6,0.6,1.7,0.9c0.1,0.3,0,0.9-0.6,1.8l-2.7,3.8c-2,2.7-1.6,6.8,0.8,9.1l4.1,4.1c2.3,2.3,6.5,2.7,9.1,0.7
		c0,0,0.4-0.3,3.8-2.7c0.8-0.6,1.4-0.7,1.6-0.7C277.5,386.8,277.8,388.2,277.9,388.6L277.9,388.6z M271.4,382.2
		c-3.5,2.5-3.8,2.7-3.9,2.7c-0.1,0.1-0.7,0-0.7-0.1l-4.1-4.1c-0.1-0.1-0.2-0.6-0.1-0.8l2.7-3.8c1.9-2.6,2.4-5.6,1.3-8.1
		c-1-2.5-3.5-4.2-6.7-4.8l-4.7-0.8c-0.2,0-0.5-0.4-0.5-0.6v-5.8c0-0.2,0.3-0.5,0.5-0.6l4.7-0.8c3.2-0.5,5.6-2.3,6.7-4.8
		c1-2.5,0.6-5.5-1.3-8.1c-2.5-3.5-2.7-3.8-2.7-3.8c-0.1-0.2-0.1-0.6,0.1-0.8l4.1-4.1c0,0,0.2-0.1,0.4-0.1c0.2,0,0.3,0,0.3,0.1
		l3.8,2.7c1.7,1.2,3.6,1.9,5.4,1.9c3.8,0,6.8-2.8,7.5-7.2l0.8-4.7c0-0.2,0.4-0.5,0.6-0.5l5.8,0c0.2,0,0.5,0.3,0.6,0.5l0.8,4.6
		c0.7,4.4,3.7,7.2,7.5,7.2c1.8,0,3.6-0.6,5.4-1.9c3.4-2.5,3.8-2.7,3.8-2.8c0.1-0.1,0.7,0,0.8,0.1l4.1,4.1c0.1,0.1,0.2,0.6,0.1,0.8
		l-2.7,3.8c-1.9,2.6-2.4,5.6-1.3,8.1c1,2.5,3.5,4.3,6.7,4.8l4.7,0.8c0.2,0,0.5,0.4,0.5,0.6l0,5.8c0,0.2-0.3,0.5-0.5,0.6l-4.7,0.8
		c-3.2,0.5-5.6,2.3-6.7,4.8c-1,2.5-0.6,5.5,1.3,8.1l2.7,3.8c0.1,0.2,0.1,0.6-0.1,0.8l-4.1,4.1c-0.1,0.1-0.7,0.1-0.8,0.1l-3.8-2.8
		c-1.7-1.2-3.6-1.9-5.4-1.9c-3.9,0-6.8,2.8-7.5,7.2l-0.8,4.7c0,0.2-0.4,0.5-0.6,0.5h-5.8c-0.2,0-0.5-0.3-0.6-0.5l-0.8-4.7
		c-0.7-4.4-3.7-7.2-7.5-7.2C274.9,380.3,273.1,381,271.4,382.2L271.4,382.2z"/>
	<path d="M288.5,374.5c8.5,0,15.4-6.9,15.4-15.5c0-8.5-6.9-15.4-15.5-15.4c-4.1,0-8,1.6-10.9,4.5c-2.9,2.9-4.5,6.8-4.5,10.9
		c0,4.1,1.6,8,4.5,10.9C280.5,372.9,284.4,374.5,288.5,374.5L288.5,374.5z M282.2,352.7c1.7-1.7,3.9-2.6,6.3-2.6
		c4.9,0,8.9,4,8.9,8.9c0,4.9-4,8.9-8.9,8.9c-2.4,0-4.6-0.9-6.3-2.6c-1.7-1.7-2.6-3.9-2.6-6.3C279.6,356.7,280.5,354.4,282.2,352.7
		L282.2,352.7z"/>
</g>
</svg>
