<?xml version="1.0" encoding="utf-8"?>
<!-- Generator: Adobe Illustrator 25.2.0, SVG Export Plug-In . SVG Version: 6.00 Build 0)  -->
<svg version="1.1" id="Layer_1" xmlns="http://www.w3.org/2000/svg" xmlns:xlink="http://www.w3.org/1999/xlink" x="0px" y="0px"
	 viewBox="0 0 423.9 423.9" style="enable-background:new 0 0 423.9 423.9;" xml:space="preserve">
<style type="text/css">
	.st0{fill:#221F20;}
</style>
<g>
	<path class="st0" d="M212.2,226.2c62.2,0,113.1-50.4,113.1-113.1C325.4,50.4,275,0,212.2,0C149.5,0,99.1,50.4,99.1,113.1
		S150.1,226.2,212.2,226.2z"/>
	<path class="st0" d="M295.7,231.8h-2.2h-1.1h-1.7h-1.1c-0.6,0-1.1,0.6-1.7,0.6h-0.6c-1.1,0.6-1.7,1.1-2.8,1.7
		c-21.3,15.1-45.9,23-72.2,23c-26.3,0-51-7.8-72.2-23c-0.6-0.6-1.7-1.1-2.8-1.7h-0.6c-0.6,0-1.1-0.6-2.2-0.6h-1.1h-1.7h-1.1h-1.7
		h-0.6C52.6,249.2,0,315.3,0,393.1v16.8c0,7.8,6.2,14,14,14h395.9c7.8,0,14-6.2,14-14v-16.8C423.9,315.8,371.3,249.2,295.7,231.8
		L295.7,231.8z"/>
</g>
</svg>
